<?xml version="1.0" standalone="no"?>
<!DOCTYPE svg PUBLIC "-//W3C//DTD SVG 20010904//EN"
 "http://www.w3.org/TR/2001/REC-SVG-20010904/DTD/svg10.dtd">
<svg version="1.0" xmlns="http://www.w3.org/2000/svg"
 width="260.000000pt" height="260.000000pt" viewBox="0 0 260.000000 260.000000"
 preserveAspectRatio="xMidYMid meet">
<g transform="translate(0.000000,260.000000) scale(0.100000,-0.100000)"
fill="#000000" stroke="none">
<path d="M0 1300 l0 -1300 1300 0 1300 0 0 1300 0 1300 -1300 0 -1300 0 0
-1300z m1320 1041 c0 -4 37 -11 82 -14 45 -4 84 -11 87 -15 3 -5 30 -15 59
-22 28 -6 52 -16 52 -20 0 -5 14 -11 30 -15 17 -4 30 -11 30 -16 0 -5 11 -14
25 -19 14 -5 25 -14 25 -20 0 -5 7 -10 15 -10 8 0 23 -9 32 -20 10 -11 21 -20
26 -20 13 0 152 -142 160 -162 3 -10 11 -18 17 -18 18 0 10 -20 -20 -50 -16
-16 -30 -33 -30 -37 0 -5 -8 -16 -17 -24 -10 -9 -29 -30 -43 -46 -14 -17 -36
-33 -48 -37 -12 -4 -27 -16 -32 -27 -6 -10 -17 -19 -25 -19 -8 0 -15 -4 -15
-9 0 -5 -13 -14 -30 -21 -16 -7 -30 -16 -30 -20 0 -4 -11 -11 -25 -14 -14 -4
-25 -10 -25 -15 0 -5 -22 -15 -50 -22 -27 -7 -50 -16 -50 -20 0 -4 -25 -10
-55 -14 -30 -3 -55 -11 -55 -16 0 -5 -49 -9 -110 -9 -61 0 -110 4 -110 9 0 5
-25 13 -55 16 -30 4 -55 10 -55 14 0 4 -22 13 -50 20 -27 7 -50 17 -50 22 0 5
-11 11 -25 15 -14 3 -25 10 -25 14 0 4 -13 13 -30 20 -16 7 -30 16 -30 21 0 5
-7 9 -15 9 -8 0 -19 9 -25 19 -5 11 -20 23 -32 27 -12 4 -34 20 -48 37 -14 16
-33 37 -42 46 -10 8 -18 19 -18 24 0 4 -14 21 -30 37 -30 30 -38 50 -20 50 6
0 14 8 17 18 8 20 147 162 160 162 5 0 16 9 26 20 9 11 24 20 32 20 8 0 15 5
15 10 0 6 11 15 25 20 14 5 25 14 25 19 0 5 14 12 30 16 17 4 30 10 30 15 0 4
24 14 53 20 28 7 55 17 58 22 3 4 42 11 87 15 45 3 82 10 82 14 0 5 9 9 20 9
11 0 20 -4 20 -9z m-880 -691 c0 -5 12 -13 26 -16 23 -6 25 -10 19 -43 -4 -20
-10 -38 -15 -41 -12 -8 -30 -163 -30 -259 0 -99 19 -251 32 -251 4 0 8 -13 8
-29 0 -16 7 -36 15 -45 8 -8 15 -21 15 -30 0 -8 6 -28 12 -43 12 -26 19 -37
43 -66 6 -7 16 -24 22 -39 7 -16 17 -28 23 -28 5 0 10 -5 10 -11 0 -11 30 -48
64 -77 10 -10 26 -25 35 -34 8 -10 21 -18 28 -18 7 0 13 -5 13 -10 0 -6 12
-16 28 -23 15 -6 31 -17 35 -24 4 -7 14 -13 21 -13 8 0 16 -6 19 -14 3 -8 19
-17 36 -21 17 -4 31 -10 31 -15 0 -4 15 -11 34 -14 19 -4 36 -11 38 -17 2 -5
43 -15 91 -22 48 -6 87 -15 87 -19 0 -4 52 -8 115 -8 63 0 115 4 115 8 0 4 39
13 87 19 47 7 89 16 92 21 3 5 21 13 39 17 17 3 32 10 32 14 0 4 17 13 37 20
20 8 41 18 47 22 50 42 60 49 70 49 6 0 23 12 36 27 14 16 37 34 52 42 14 7
29 24 32 37 4 13 15 28 26 34 11 6 20 15 20 21 0 5 9 19 20 31 11 12 20 27 20
34 0 6 7 14 15 18 8 3 15 12 15 21 0 8 4 15 9 15 5 0 15 23 22 50 7 27 16 50
20 50 5 0 11 17 15 38 4 20 12 40 18 44 16 10 15 436 0 446 -6 4 -15 26 -19
50 -4 23 -11 42 -16 42 -24 0 -5 30 26 40 19 6 35 16 35 21 0 5 7 9 15 9 8 0
15 -6 15 -14 0 -8 4 -16 9 -18 5 -1 15 -32 22 -68 7 -36 18 -68 24 -72 15 -10
14 -426 -1 -436 -7 -4 -17 -33 -24 -64 -6 -32 -15 -58 -20 -58 -4 0 -11 -16
-14 -35 -4 -19 -11 -35 -15 -35 -5 0 -14 -20 -21 -44 -7 -25 -18 -47 -26 -50
-8 -3 -14 -10 -14 -16 0 -6 -13 -24 -30 -40 -16 -16 -30 -33 -30 -37 0 -4 -12
-19 -25 -32 -14 -13 -25 -26 -25 -30 0 -4 -11 -13 -24 -20 -13 -7 -29 -23 -36
-36 -7 -13 -24 -29 -39 -36 -14 -8 -30 -20 -34 -26 -4 -7 -15 -13 -22 -13 -8
0 -15 -4 -15 -9 0 -5 -16 -15 -35 -21 -19 -6 -35 -15 -35 -20 0 -5 -13 -11
-30 -15 -16 -4 -30 -10 -30 -15 0 -5 -25 -14 -55 -21 -30 -7 -55 -15 -55 -19
0 -4 -24 -11 -52 -14 -29 -4 -56 -12 -59 -18 -10 -16 -357 -17 -367 -2 -4 6
-29 14 -56 18 -28 3 -53 10 -56 16 -3 5 -25 12 -48 16 -24 4 -49 13 -56 20 -8
7 -25 16 -40 20 -14 3 -26 9 -26 13 0 3 -15 13 -32 21 -18 7 -37 18 -43 22
-43 36 -57 47 -81 64 -57 41 -164 158 -164 180 0 7 -7 14 -15 18 -8 3 -15 12
-15 21 0 8 -4 15 -9 15 -5 0 -15 16 -21 35 -6 19 -15 35 -20 35 -5 0 -12 15
-15 33 -4 17 -12 35 -16 38 -5 3 -15 32 -21 65 -7 32 -16 62 -20 65 -5 3 -11
42 -15 87 -3 45 -10 82 -14 82 -5 0 -9 38 -9 85 0 47 4 85 9 85 4 0 11 33 14
72 4 40 11 74 17 76 5 2 10 13 10 23 0 11 5 40 11 65 10 37 15 44 35 44 13 0
24 -4 24 -10z m220 -109 c0 -5 14 -12 30 -16 25 -5 30 -12 30 -35 0 -16 -6
-30 -12 -32 -18 -6 -18 -305 -1 -316 7 -4 15 -27 19 -50 4 -24 13 -49 20 -56
7 -8 16 -25 19 -39 4 -14 13 -28 21 -31 8 -3 14 -12 14 -21 0 -8 4 -15 9 -15
5 0 12 -9 16 -19 8 -26 89 -108 114 -116 10 -3 22 -12 25 -20 3 -8 12 -15 21
-15 8 0 15 -4 15 -8 0 -4 17 -14 38 -21 20 -8 40 -18 43 -23 3 -5 29 -11 57
-15 29 -3 52 -10 52 -14 0 -5 52 -9 115 -9 63 0 115 4 115 9 0 5 23 11 50 15
28 4 50 10 50 14 0 5 17 14 37 21 20 8 43 19 50 25 37 30 173 163 173 170 0 6
9 18 36 49 6 7 15 24 19 37 4 14 12 28 16 31 5 3 15 32 21 65 7 32 16 62 21
65 12 8 11 250 -1 258 -12 8 -22 64 -14 78 4 6 20 15 35 18 15 4 27 11 27 16
0 5 6 9 14 9 8 0 18 -14 21 -32 4 -18 13 -36 19 -40 15 -10 15 -346 0 -356 -6
-4 -15 -26 -19 -49 -4 -24 -10 -43 -15 -43 -4 0 -13 -20 -20 -45 -7 -25 -17
-45 -21 -45 -5 0 -9 -7 -9 -15 0 -7 -6 -18 -13 -22 -6 -4 -19 -21 -27 -37 -8
-17 -47 -62 -87 -100 -93 -91 -98 -95 -133 -108 -17 -5 -30 -14 -30 -18 0 -5
-13 -11 -30 -15 -16 -4 -30 -10 -30 -14 0 -10 -92 -31 -136 -31 -19 0 -34 -4
-34 -10 0 -6 -35 -10 -85 -10 -50 0 -85 4 -85 10 0 6 -18 10 -39 10 -47 0
-141 20 -141 31 0 4 -15 10 -34 13 -19 4 -36 13 -39 20 -3 7 -18 16 -33 20
-15 4 -38 20 -53 37 -14 16 -30 29 -35 29 -12 0 -76 66 -76 79 0 6 -9 15 -20
21 -11 6 -22 21 -26 35 -3 13 -12 26 -20 29 -8 3 -14 12 -14 21 0 8 -4 15 -8
15 -5 0 -15 18 -22 40 -7 22 -17 40 -21 40 -4 0 -10 19 -14 43 -4 23 -11 44
-16 47 -5 3 -14 52 -20 107 -11 106 2 284 21 291 6 2 10 15 10 28 0 17 6 24
20 24 11 0 20 -4 20 -9z m247 -123 c15 -7 34 -18 41 -25 14 -14 16 -43 2 -43
-5 0 -10 -25 -10 -55 0 -30 3 -55 8 -55 4 0 13 -28 19 -62 7 -35 19 -65 27
-70 9 -5 16 -14 16 -20 0 -19 98 -108 132 -120 18 -6 36 -16 40 -22 10 -16
226 -15 236 1 4 6 20 15 35 18 16 4 31 14 34 21 3 8 10 14 15 14 12 0 68 52
68 63 0 5 6 15 13 22 30 35 36 45 46 81 6 22 11 79 11 127 0 94 4 103 53 125
40 17 47 15 47 -13 0 -14 5 -25 10 -25 6 0 10 -35 10 -85 0 -47 -4 -85 -9 -85
-5 0 -11 -22 -15 -50 -4 -27 -11 -50 -16 -50 -4 0 -11 -14 -15 -31 -4 -16 -20
-44 -36 -60 -16 -16 -29 -33 -29 -37 0 -14 -55 -67 -85 -82 -17 -8 -36 -21
-43 -27 -7 -7 -22 -13 -32 -13 -10 0 -20 -4 -22 -9 -1 -6 -32 -15 -68 -20 -70
-11 -239 1 -249 17 -3 5 -21 13 -38 17 -18 3 -33 10 -33 15 0 5 -9 11 -20 15
-25 8 -120 103 -120 120 0 7 -6 15 -14 18 -8 3 -17 19 -21 36 -4 17 -10 31
-15 31 -4 0 -11 17 -15 37 -4 21 -11 41 -16 44 -16 9 -13 216 3 233 16 19 20
19 55 4z"/>
<path d="M1178 2213 c-21 -2 -38 -8 -38 -13 0 -5 -16 -12 -35 -16 -19 -3 -35
-10 -35 -14 0 -4 -20 -13 -45 -20 -25 -7 -45 -17 -45 -22 0 -5 -8 -12 -17 -15
-19 -8 -27 -14 -110 -91 -35 -32 -63 -62 -63 -68 0 -5 12 -20 25 -33 14 -13
25 -27 25 -31 0 -5 10 -12 23 -16 12 -3 34 -20 48 -35 14 -16 31 -29 37 -29 6
0 15 -6 19 -14 4 -7 25 -19 46 -25 20 -7 37 -16 37 -21 0 -5 15 -12 33 -15 17
-4 34 -11 37 -16 3 -4 45 -13 93 -19 66 -9 108 -9 174 0 48 6 90 15 93 19 3 5
20 12 38 16 17 3 32 10 32 15 0 5 17 14 38 21 20 6 41 18 45 25 4 8 13 14 19
14 6 0 23 13 37 29 14 15 36 32 49 35 12 4 22 11 22 16 0 4 11 18 25 31 13 13
25 28 25 33 0 6 -28 36 -62 68 -84 77 -92 83 -111 91 -9 3 -17 10 -17 15 0 5
-20 15 -45 22 -25 7 -45 16 -45 20 0 4 -15 11 -34 14 -19 4 -36 11 -38 17 -4
11 -214 21 -280 12z m268 -108 c38 -38 48 -55 52 -91 2 -24 9 -44 13 -44 5 0
9 -7 9 -15 0 -8 -4 -15 -10 -15 -5 0 -10 -11 -10 -25 0 -67 -79 -155 -139
-155 -12 0 -21 -4 -21 -10 0 -5 -18 -10 -40 -10 -22 0 -40 5 -40 10 0 6 -9 10
-21 10 -60 0 -139 88 -139 155 0 14 -4 25 -10 25 -5 0 -10 7 -10 15 0 8 4 15
9 15 4 0 11 20 13 44 4 35 14 53 51 89 52 53 65 57 169 52 76 -3 77 -3 124
-50z"/>
<path d="M1254 2035 c-4 -8 -12 -15 -19 -15 -34 0 -34 -96 -1 -127 34 -32 103
-32 134 1 32 34 30 126 -3 126 -7 0 -15 7 -19 15 -3 10 -19 15 -46 15 -27 0
-43 -5 -46 -15z"/>
</g>
</svg>
